<svg xmlns="http://www.w3.org/2000/svg" xmlns:xlink="http://www.w3.org/1999/xlink" width="1280" height="1280" viewBox="0 0 1280 1280" fill="none"><rect x="0" y="0" width="0" height="0" fill="rgba(249, 249, 249, 1)" /><g opacity="1"  transform="translate(0 0)  rotate(0)"><mask id="bg-mask-0" fill="white"><use transform="translate(0 0)  rotate(NaN)" xlink:href="#path_0"></use></mask><g mask="url(#bg-mask-0)" ><g opacity="1"  transform="translate(70 494)  rotate(0)"><mask id="bg-mask-1" fill="white"><use transform="translate(0 0)  rotate(0)" xlink:href="#path_1"></use></mask><g mask="url(#bg-mask-1)" ><path id="路径 1" fill-rule="evenodd" style="fill:#383838" opacity="1" d="M272.318,222.668c0.86,5.12 -0.21,9.73 -3.2,13.83c-2.98,4.09 -7.04,6.57 -12.16,7.42l-30.72,4.87c-4.95,0.85 -9.52,-0.22 -13.7,-3.2c-4.18,-2.99 -6.7,-7.04 -7.55,-12.16l-26.11,-165.3903c-0.35,-2.56 -0.22,-4.99 0.38,-7.3c0.6,-2.3 1.58,-4.44 2.94,-6.4c1.37,-1.96 3.12,-3.58 5.25,-4.86c2.13,-1.28 4.48,-2.18 7.04,-2.69l30.47,-4.87c5.12,-0.85 9.73,0.26 13.82,3.33c4.1,3.07 6.57,7.17 7.43,12.29zM143.548,40.8977c5.12,0 9.47,1.79 13.05,5.38c3.59,3.58 5.38,7.93 5.38,13.05v171.0203c0,5.12 -1.79,9.48 -5.38,13.06c-3.58,3.59 -7.93,5.38 -13.05,5.38h-26.63c-5.12,0 -9.47,-1.79 -13.06,-5.38c-3.58,-3.58 -5.3697,-7.94 -5.3697,-13.06v-171.0203c0,-5.12 1.36,-9.47 4.0897,-13.05c2.73,-3.59 6.74,-5.38 12.04,-5.38zM147.898,167.498c1.19,-1.62 1.79,-3.54 1.79,-5.76c0,-2.39 -0.6,-4.35 -1.79,-5.89c-1.2,-1.53 -2.65,-2.3 -4.35,-2.3h-26.63c-1.71,0 -3.16,0.77 -4.35,2.3c-1.2,1.54 -1.8,3.5 -1.8,5.89c0,2.22 0.6,4.14 1.8,5.76c1.19,1.62 2.64,2.43 4.35,2.43h26.63c1.7,0 3.15,-0.81 4.35,-2.43zM147.898,134.988c1.19,-1.62 1.79,-3.63 1.79,-6.02c0,-2.39 -0.6,-4.35 -1.79,-5.89c-1.2,-1.53 -2.65,-2.3 -4.35,-2.3h-26.63c-1.71,0 -3.16,0.77 -4.35,2.3c-1.2,1.54 -1.8,3.5 -1.8,5.89c0,2.39 0.6,4.4 1.8,6.02c1.19,1.62 2.64,2.43 4.35,2.43h26.63c1.7,0 3.15,-0.81 4.35,-2.43zM63.1583,40.8977c5.12,0 9.51,1.79 13.18,5.38c3.67,3.58 5.5,7.93 5.5,13.05v171.0203c0,5.12 -1.83,9.48 -5.5,13.06c-3.67,3.59 -8.06,5.38 -13.18,5.38h-26.63c-5.12,0 -9.52,-1.79 -13.19,-5.38c-3.67,-3.58 -5.5,-7.94 -5.5,-13.06v-171.0203c0,-5.12 1.83,-9.47 5.5,-13.05c3.67,-3.59 8.07,-5.38 13.19,-5.38zM32.9383,107.208c-1.19,1.53 -1.79,3.5 -1.79,5.89c0,2.22 0.6,4.14 1.79,5.76c1.2,1.62 2.74,2.43 4.61,2.43h24.58c1.88,0 3.37,-0.81 4.48,-2.43c1.11,-1.62 1.67,-3.54 1.67,-5.76c0,-2.39 -0.56,-4.36 -1.67,-5.89c-1.11,-1.54 -2.6,-2.31 -4.48,-2.31h-24.58c-1.87,0 -3.41,0.77 -4.61,2.31zM67.6383,182.988c1.1,-1.54 1.66,-3.41 1.66,-5.63c0,-2.39 -0.56,-4.31 -1.66,-5.76c-1.11,-1.45 -2.61,-2.18 -4.48,-2.18h-25.61c-1.87,0 -3.41,0.73 -4.61,2.18c-1.19,1.45 -1.79,3.37 -1.79,5.76c0,2.22 0.6,4.09 1.79,5.63c1.2,1.54 2.74,2.3 4.61,2.3h25.61c1.87,0 3.37,-0.76 4.48,-2.3zM67.6383,151.498c1.1,-1.54 1.66,-3.5 1.66,-5.89c0,-2.39 -0.56,-4.35 -1.66,-5.89c-1.11,-1.53 -2.61,-2.3 -4.48,-2.3h-25.61c-1.87,0 -3.41,0.77 -4.61,2.3c-1.19,1.54 -1.79,3.5 -1.79,5.89c0,2.39 0.6,4.35 1.79,5.89c1.2,1.54 2.74,2.3 4.61,2.3h25.61c1.87,0 3.37,-0.76 4.48,-2.3z"></path></g></g><g opacity="1" transform="translate(392 526)  rotate(0)"><text><tspan x="0" y="83.1796875" font-size="72" line-height="0" fill="#000000" opacity="1" font-family="Monoton-Regular" font-weight="Regular" letter-spacing="20"  >PAST</tspan><tspan x="300.359375" y="83.1796875" font-size="72" line-height="0" fill="#000000" opacity="1" font-family="Monoton-Regular" font-weight="Regular" letter-spacing="0"  > </tspan><tspan x="0" y="195.2578125" font-size="72" line-height="0" fill="#000000" opacity="1" font-family="Monoton-Regular" font-weight="Regular" letter-spacing="20"  >AND</tspan><tspan x="254.44921875" y="195.2578125" font-size="72" line-height="0" fill="#000000" opacity="1" font-family="Monoton-Regular" font-weight="Regular" letter-spacing="20"  > ONGOIN</tspan><tspan x="752.90234375" y="195.2578125" font-size="72" line-height="0" fill="#000000" opacity="1" font-family="Monoton-Regular" font-weight="Regular" letter-spacing="0" >G</tspan></text></g><path id="矩形 1" fill-rule="evenodd" style="fill:#FF8D1A" opacity="1" d="M742 623L754 623L754 531L742 531L742 623Z"></path><g opacity="1" transform="translate(802 546)  rotate(0)"><text><tspan x="0" y="58.9" font-size="72" line-height="53" fill="#000000" opacity="1" font-family="AlimamaShuHeiTi-Regular" font-weight="Regular" letter-spacing="20"  >陈忆鲜</tspan><tspan x="276" y="58.9" font-size="72" line-height="53" fill="#000000" opacity="1" font-family="AlimamaShuHeiTi-Regular" font-weight="Regular" letter-spacing="0" >闻</tspan></text></g></g></g><defs><rect id="path_0" x="0" y="0" width="1280" height="1280" /><rect id="path_1" x="0" y="0" width="292" height="292" /></defs></svg>