<svg xmlns="http://www.w3.org/2000/svg" xmlns:xlink="http://www.w3.org/1999/xlink" width="2560" height="2560" viewBox="0 0 2560 2560" fill="none"><rect x="0" y="0" width="0" height="0" fill="rgba(249, 249, 249, 1)" /><g opacity="1"  transform="translate(0 0)  rotate(0)"><mask id="bg-mask-0" fill="white"><use transform="translate(0 0)  rotate(NaN)" xlink:href="#path_0"></use></mask><g mask="url(#bg-mask-0)" ><g opacity="1"  transform="translate(140.00009155273438 988)  rotate(0)"><mask id="bg-mask-1" fill="white"><use transform="translate(0 0)  rotate(0)" xlink:href="#path_1"></use></mask><g mask="url(#bg-mask-1)" ><path id="路径 1" fill-rule="evenodd" style="fill:#383838" opacity="1" d="M544.636,445.345c1.71,10.24 -0.42,19.45 -6.4,27.65c-5.97,8.19 -14.08,13.14 -24.319,14.84l-61.441,9.73c-9.9,1.71 -19.03,-0.42 -27.4,-6.4c-8.36,-5.97 -13.39,-14.08 -15.1,-24.32l-52.23,-330.77c-0.68,-5.12 -0.43,-9.99 0.77,-14.6c1.19,-4.6 3.16,-8.87 5.89,-12.8c2.73,-3.92 6.23,-7.17 10.49,-9.7295c4.27,-2.56 8.96,-4.35 14.09,-5.37l60.93,-9.73c10.24,-1.71 19.46,0.51 27.65,6.65c8.19,6.15 13.14,14.3395 14.85,24.5795zM287.086,81.7955c10.24,0 18.94,3.58 26.11,10.75c7.17,7.17 10.76,15.8795 10.76,26.1195v342.04c0,10.24 -3.59,18.94 -10.76,26.11c-7.17,7.17 -15.87,10.75 -26.11,10.75h-53.249c-10.241,0 -18.95,-3.58 -26.121,-10.75c-7.159,-7.17 -10.75,-15.87 -10.75,-26.11v-342.04c0,-10.24 2.731,-18.9495 8.19,-26.1195c5.47,-7.17 13.49,-10.75 24.071,-10.75zM295.786,334.995c2.39,-3.24 3.59,-7.08 3.59,-11.52c0,-4.78 -1.2,-8.7 -3.59,-11.78c-2.39,-3.07 -5.289,-4.6 -8.7,-4.6h-53.249c-3.411,0 -6.321,1.53 -8.711,4.6c-2.39,3.08 -3.58,7 -3.58,11.78c0,4.44 1.19,8.28 3.58,11.52c2.39,3.24 5.291,4.87 8.711,4.87h53.249c3.411,0 6.31,-1.63 8.7,-4.87zM295.786,269.965c2.39,-3.24 3.59,-7.25 3.59,-12.03c0,-4.78 -1.2,-8.7 -3.59,-11.78c-2.39,-3.07 -5.289,-4.6 -8.7,-4.6h-53.249c-3.411,0 -6.321,1.53 -8.711,4.6c-2.39,3.08 -3.58,7 -3.58,11.78c0,4.78 1.19,8.79 3.58,12.03c2.39,3.25 5.291,4.87 8.711,4.87h53.249c3.411,0 6.31,-1.62 8.7,-4.87zM126.307,81.7955c10.24,0 19.03,3.58 26.37,10.75c7.34,7.17 11.009,15.8795 11.009,26.1195v342.04c0,10.24 -3.669,18.94 -11.009,26.11c-7.34,7.17 -16.13,10.75 -26.37,10.75h-53.2505c-10.24,0 -19.03,-3.58 -26.37,-10.75c-7.34,-7.17 -11.01,-15.87 -11.01,-26.11v-342.04c0,-10.24 3.67,-18.9495 11.01,-26.1195c7.34,-7.17 16.13,-10.75 26.37,-10.75zM65.8865,214.415c-2.39,3.07 -3.58,7 -3.58,11.77c0,4.44 1.19,8.28 3.58,11.52c2.39,3.25 5.46,4.87 9.22,4.87h49.1505c3.76,0 6.74,-1.62 8.96,-4.87c2.22,-3.24 3.33,-7.08 3.33,-11.52c0,-4.77 -1.11,-8.7 -3.33,-11.77c-2.22,-3.07 -5.2,-4.61 -8.96,-4.61h-49.1505c-3.76,0 -6.83,1.54 -9.22,4.61zM135.267,365.975c2.22,-3.07 3.329,-6.83 3.329,-11.26c0,-4.78 -1.109,-8.62 -3.329,-11.53c-2.22,-2.9 -5.201,-4.35 -8.96,-4.35h-51.2005c-3.76,0 -6.83,1.45 -9.22,4.35c-2.39,2.91 -3.58,6.75 -3.58,11.53c0,4.43 1.19,8.19 3.58,11.26c2.39,3.07 5.46,4.61 9.22,4.61h51.2005c3.759,0 6.74,-1.54 8.96,-4.61zM135.267,302.995c2.22,-3.07 3.329,-7 3.329,-11.78c0,-4.78 -1.109,-8.7 -3.329,-11.77c-2.22,-3.08 -5.201,-4.61 -8.96,-4.61h-51.2005c-3.76,0 -6.83,1.53 -9.22,4.61c-2.39,3.07 -3.58,6.99 -3.58,11.77c0,4.78 1.19,8.71 3.58,11.78c2.39,3.07 5.46,4.61 9.22,4.61h51.2005c3.759,0 6.74,-1.54 8.96,-4.61z"></path></g></g><g opacity="1" transform="translate(784.0001220703125 1052.0000610351562)  rotate(0)"><text><tspan x="0" y="166.35937499999997" font-size="143.99999999999997" line-height="0" fill="#000000" opacity="1" font-family="Monoton-Regular" font-weight="Regular" letter-spacing="39.99999999999999"  >PAST</tspan><tspan x="600.7187499999999" y="166.35937499999997" font-size="143.99999999999997" line-height="0" fill="#000000" opacity="1" font-family="Monoton-Regular" font-weight="Regular" letter-spacing="0"  > </tspan><tspan x="0" y="390.5156249999999" font-size="143.99999999999997" line-height="0" fill="#000000" opacity="1" font-family="Monoton-Regular" font-weight="Regular" letter-spacing="39.99999999999999"  >AND</tspan><tspan x="508.8984374999999" y="390.5156249999999" font-size="143.99999999999997" line-height="0" fill="#000000" opacity="1" font-family="Monoton-Regular" font-weight="Regular" letter-spacing="39.99999999999999"  > ONGOIN</tspan><tspan x="1505.8046874999998" y="390.5156249999999" font-size="143.99999999999997" line-height="0" fill="#000000" opacity="1" font-family="Monoton-Regular" font-weight="Regular" letter-spacing="0" >G</tspan></text></g><path id="矩形 1" fill-rule="evenodd" style="fill:#FF8D1A" opacity="1" d="M1484 1246L1508 1246L1508 1062L1484 1062L1484 1246Z"></path><g opacity="1" transform="translate(1604 1092.0000610351562)  rotate(0)"><text><tspan x="0" y="117.79999999999998" font-size="143.99999999999997" line-height="105.99999999999999" fill="#000000" opacity="1" font-family="AlimamaShuHeiTi-Regular" font-weight="Regular" letter-spacing="39.99999999999999"  >陈忆鲜</tspan><tspan x="551.9999999999999" y="117.79999999999998" font-size="143.99999999999997" line-height="105.99999999999999" fill="#000000" opacity="1" font-family="AlimamaShuHeiTi-Regular" font-weight="Regular" letter-spacing="0" >闻</tspan></text></g></g></g><defs><rect id="path_0" x="0" y="0" width="2560" height="2560" /><rect id="path_1" x="0" y="0" width="584" height="584" /></defs></svg>